<?xml version="1.0" encoding="us-ascii" standalone="no"?><svg xmlns="http://www.w3.org/2000/svg" xmlns:xlink="http://www.w3.org/1999/xlink" contentStyleType="text/css" height="1541px" preserveAspectRatio="none" style="width:847px;height:1541px;background:#FFFFFF;" version="1.1" viewBox="0 0 847 1541" width="847px" zoomAndPan="magnify"><defs/><g><rect fill="#FFFFFF" height="240.9297" style="stroke:#181818;stroke-width:1.0;" width="10" x="337.5" y="110.5625"/><rect fill="#FFFFFF" height="267.9297" style="stroke:#181818;stroke-width:1.0;" width="10" x="337.5" y="423.7578"/><rect fill="#FFFFFF" height="265.9297" style="stroke:#181818;stroke-width:1.0;" width="10" x="337.5" y="765.9531"/><rect fill="#FFFFFF" height="265.9297" style="stroke:#181818;stroke-width:1.0;" width="10" x="337.5" y="1222.5469"/><rect fill="#FFFFFF" height="64.2656" style="stroke:#181818;stroke-width:1.0;" width="10" x="553" y="258.0938"/><rect fill="#FFFFFF" height="64.2656" style="stroke:#181818;stroke-width:1.0;" width="10" x="553" y="571.2891"/><rect fill="#FFFFFF" height="64.2656" style="stroke:#181818;stroke-width:1.0;" width="10" x="553" y="913.4844"/><rect fill="#FFFFFF" height="190.6641" style="stroke:#181818;stroke-width:1.0;" width="10" x="553" y="1031.8828"/><rect fill="#FFFFFF" height="64.2656" style="stroke:#181818;stroke-width:1.0;" width="10" x="553" y="1395.0781"/><rect fill="#FFFFFF" height="64.2656" style="stroke:#181818;stroke-width:1.0;" width="10" x="742" y="139.6953"/><rect fill="#FFFFFF" height="64.2656" style="stroke:#181818;stroke-width:1.0;" width="10" x="742" y="452.8906"/><rect fill="#FFFFFF" height="545.8594" style="stroke:#181818;stroke-width:1.0;" width="10" x="742" y="795.0859"/><rect fill="#F6DA44" height="147.5313" style="stroke:#000000;stroke-width:1.5;" width="257" x="457" y="1046.8828"/><rect fill="#F9E885" height="44.1328" style="stroke:none;stroke-width:1.0;" width="257" x="457" y="1106.1484"/><rect fill="#FDF6CE" height="44.1328" style="stroke:none;stroke-width:1.0;" width="257" x="457" y="1150.2813"/><line style="stroke:#181818;stroke-width:0.5;stroke-dasharray:5.0,5.0;" x1="108" x2="108" y1="36.2969" y2="1506.4766"/><line style="stroke:#181818;stroke-width:0.5;stroke-dasharray:5.0,5.0;" x1="342" x2="342" y1="36.2969" y2="1506.4766"/><line style="stroke:#181818;stroke-width:0.5;stroke-dasharray:5.0,5.0;" x1="558" x2="558" y1="36.2969" y2="1506.4766"/><line style="stroke:#181818;stroke-width:0.5;stroke-dasharray:5.0,5.0;" x1="747" x2="747" y1="36.2969" y2="1506.4766"/><rect fill="#E2E2F0" height="30.2969" rx="2.5" ry="2.5" style="stroke:#181818;stroke-width:0.5;" width="67" x="75" y="5"/><text fill="#000000" font-family="DejaVu Sans" font-size="14" lengthAdjust="spacing" textLength="53" x="82" y="24.9951">Service</text><rect fill="#E2E2F0" height="30.2969" rx="2.5" ry="2.5" style="stroke:#181818;stroke-width:0.5;" width="67" x="75" y="1505.4766"/><text fill="#000000" font-family="DejaVu Sans" font-size="14" lengthAdjust="spacing" textLength="53" x="82" y="1525.4717">Service</text><rect fill="#E2E2F0" height="30.2969" rx="2.5" ry="2.5" style="stroke:#181818;stroke-width:0.5;" width="89" x="298" y="5"/><text fill="#000000" font-family="DejaVu Sans" font-size="14" lengthAdjust="spacing" textLength="75" x="305" y="24.9951">EduTEAMS</text><rect fill="#E2E2F0" height="30.2969" rx="2.5" ry="2.5" style="stroke:#181818;stroke-width:0.5;" width="89" x="298" y="1505.4766"/><text fill="#000000" font-family="DejaVu Sans" font-size="14" lengthAdjust="spacing" textLength="75" x="305" y="1525.4717">EduTEAMS</text><rect fill="#E2E2F0" height="30.2969" rx="2.5" ry="2.5" style="stroke:#181818;stroke-width:0.5;" width="42" x="537" y="5"/><text fill="#000000" font-family="DejaVu Sans" font-size="14" lengthAdjust="spacing" textLength="28" x="544" y="24.9951">SBS</text><rect fill="#E2E2F0" height="30.2969" rx="2.5" ry="2.5" style="stroke:#181818;stroke-width:0.5;" width="42" x="537" y="1505.4766"/><text fill="#000000" font-family="DejaVu Sans" font-size="14" lengthAdjust="spacing" textLength="28" x="544" y="1525.4717">SBS</text><rect fill="#E2E2F0" height="30.2969" rx="2.5" ry="2.5" style="stroke:#181818;stroke-width:0.5;" width="36" x="729" y="5"/><text fill="#000000" font-family="DejaVu Sans" font-size="14" lengthAdjust="spacing" textLength="22" x="736" y="24.9951">IdP</text><rect fill="#E2E2F0" height="30.2969" rx="2.5" ry="2.5" style="stroke:#181818;stroke-width:0.5;" width="36" x="729" y="1505.4766"/><text fill="#000000" font-family="DejaVu Sans" font-size="14" lengthAdjust="spacing" textLength="22" x="736" y="1525.4717">IdP</text><rect fill="#FFFFFF" height="240.9297" style="stroke:#181818;stroke-width:1.0;" width="10" x="337.5" y="110.5625"/><rect fill="#FFFFFF" height="267.9297" style="stroke:#181818;stroke-width:1.0;" width="10" x="337.5" y="423.7578"/><rect fill="#FFFFFF" height="265.9297" style="stroke:#181818;stroke-width:1.0;" width="10" x="337.5" y="765.9531"/><rect fill="#FFFFFF" height="265.9297" style="stroke:#181818;stroke-width:1.0;" width="10" x="337.5" y="1222.5469"/><rect fill="#FFFFFF" height="64.2656" style="stroke:#181818;stroke-width:1.0;" width="10" x="553" y="258.0938"/><rect fill="#FFFFFF" height="64.2656" style="stroke:#181818;stroke-width:1.0;" width="10" x="553" y="571.2891"/><rect fill="#FFFFFF" height="64.2656" style="stroke:#181818;stroke-width:1.0;" width="10" x="553" y="913.4844"/><rect fill="#FFFFFF" height="190.6641" style="stroke:#181818;stroke-width:1.0;" width="10" x="553" y="1031.8828"/><rect fill="#FFFFFF" height="64.2656" style="stroke:#181818;stroke-width:1.0;" width="10" x="553" y="1395.0781"/><rect fill="#FFFFFF" height="64.2656" style="stroke:#181818;stroke-width:1.0;" width="10" x="742" y="139.6953"/><rect fill="#FFFFFF" height="64.2656" style="stroke:#181818;stroke-width:1.0;" width="10" x="742" y="452.8906"/><rect fill="#FFFFFF" height="545.8594" style="stroke:#181818;stroke-width:1.0;" width="10" x="742" y="795.0859"/><rect fill="#EEEEEE" height="3" style="stroke:#EEEEEE;stroke-width:1.0;" width="840" x="0" y="66.8633"/><line style="stroke:#000000;stroke-width:1.0;" x1="0" x2="840" y1="66.8633" y2="66.8633"/><line style="stroke:#000000;stroke-width:1.0;" x1="0" x2="840" y1="69.8633" y2="69.8633"/><rect fill="#EEEEEE" height="23.1328" style="stroke:#000000;stroke-width:2.0;" width="103" x="368.5" y="56.2969"/><text fill="#000000" font-family="DejaVu Sans" font-size="13" font-weight="bold" lengthAdjust="spacing" textLength="84" x="374.5" y="72.3638">Happy flow</text><polygon fill="#181818" points="325.5,106.5625,335.5,110.5625,325.5,114.5625,329.5,110.5625" style="stroke:#181818;stroke-width:1.0;"/><line style="stroke:#181818;stroke-width:1.0;" x1="108.5" x2="331.5" y1="110.5625" y2="110.5625"/><text fill="#000000" font-family="DejaVu Sans" font-size="13" lengthAdjust="spacing" textLength="96" x="115.5" y="105.4966">AuthN Request</text><polygon fill="#181818" points="730,135.6953,740,139.6953,730,143.6953,734,139.6953" style="stroke:#181818;stroke-width:1.0;"/><line style="stroke:#181818;stroke-width:1.0;" x1="347.5" x2="736" y1="139.6953" y2="139.6953"/><text fill="#000000" font-family="DejaVu Sans" font-size="13" lengthAdjust="spacing" textLength="96" x="354.5" y="134.6294">AuthN Request</text><path d="M705,152.6953 L705,177.6953 L788,177.6953 L788,162.6953 L778,152.6953 L705,152.6953 " fill="#FEFFDD" style="stroke:#181818;stroke-width:0.5;"/><path d="M778,152.6953 L778,162.6953 L788,162.6953 L778,152.6953 " fill="#FEFFDD" style="stroke:#181818;stroke-width:0.5;"/><text fill="#000000" font-family="DejaVu Sans" font-size="13" lengthAdjust="spacing" textLength="62" x="711" y="169.7622">user login</text><polygon fill="#181818" points="358.5,199.9609,348.5,203.9609,358.5,207.9609,354.5,203.9609" style="stroke:#181818;stroke-width:1.0;"/><line style="stroke:#181818;stroke-width:1.0;" x1="352.5" x2="746" y1="203.9609" y2="203.9609"/><text fill="#000000" font-family="DejaVu Sans" font-size="13" lengthAdjust="spacing" textLength="106" x="364.5" y="198.895">AuthN Response</text><polygon fill="#181818" points="541,254.0938,551,258.0938,541,262.0938,545,258.0938" style="stroke:#181818;stroke-width:1.0;"/><line style="stroke:#181818;stroke-width:1.0;stroke-dasharray:2.0,2.0;" x1="347.5" x2="547" y1="258.0938" y2="258.0938"/><text fill="#000000" font-family="DejaVu Sans" font-size="13" lengthAdjust="spacing" textLength="97" x="354.5" y="253.0278">AuthZ Request</text><path d="M507,271.0938 L507,296.0938 L608,296.0938 L608,281.0938 L598,271.0938 L507,271.0938 " fill="#FEFFDD" style="stroke:#181818;stroke-width:0.5;"/><path d="M598,271.0938 L598,281.0938 L608,281.0938 L598,271.0938 " fill="#FEFFDD" style="stroke:#181818;stroke-width:0.5;"/><text fill="#000000" font-family="DejaVu Sans" font-size="13" lengthAdjust="spacing" textLength="80" x="513" y="288.1606">authZ check</text><polygon fill="#181818" points="358.5,318.3594,348.5,322.3594,358.5,326.3594,354.5,322.3594" style="stroke:#181818;stroke-width:1.0;"/><line style="stroke:#181818;stroke-width:1.0;stroke-dasharray:2.0,2.0;" x1="352.5" x2="557" y1="322.3594" y2="322.3594"/><text fill="#000000" font-family="DejaVu Sans" font-size="13" lengthAdjust="spacing" textLength="161" x="364.5" y="317.2935">AuthZ OK + Entitlements</text><polygon fill="#181818" points="119.5,347.4922,109.5,351.4922,119.5,355.4922,115.5,351.4922" style="stroke:#181818;stroke-width:1.0;"/><line style="stroke:#181818;stroke-width:1.0;" x1="113.5" x2="341.5" y1="351.4922" y2="351.4922"/><text fill="#000000" font-family="DejaVu Sans" font-size="13" lengthAdjust="spacing" textLength="205" x="125.5" y="346.4263">AuthN Response + Entitlements</text><rect fill="#EEEEEE" height="3" style="stroke:#EEEEEE;stroke-width:1.0;" width="840" x="0" y="380.0586"/><line style="stroke:#000000;stroke-width:1.0;" x1="0" x2="840" y1="380.0586" y2="380.0586"/><line style="stroke:#000000;stroke-width:1.0;" x1="0" x2="840" y1="383.0586" y2="383.0586"/><rect fill="#EEEEEE" height="23.1328" style="stroke:#000000;stroke-width:2.0;" width="196" x="322" y="369.4922"/><text fill="#000000" font-family="DejaVu Sans" font-size="13" font-weight="bold" lengthAdjust="spacing" textLength="177" x="328" y="385.5591">Permission Denied flow</text><polygon fill="#181818" points="325.5,419.7578,335.5,423.7578,325.5,427.7578,329.5,423.7578" style="stroke:#181818;stroke-width:1.0;"/><line style="stroke:#181818;stroke-width:1.0;" x1="108.5" x2="331.5" y1="423.7578" y2="423.7578"/><text fill="#000000" font-family="DejaVu Sans" font-size="13" lengthAdjust="spacing" textLength="96" x="115.5" y="418.6919">AuthN Request</text><polygon fill="#181818" points="730,448.8906,740,452.8906,730,456.8906,734,452.8906" style="stroke:#181818;stroke-width:1.0;"/><line style="stroke:#181818;stroke-width:1.0;" x1="347.5" x2="736" y1="452.8906" y2="452.8906"/><text fill="#000000" font-family="DejaVu Sans" font-size="13" lengthAdjust="spacing" textLength="96" x="354.5" y="447.8247">AuthN Request</text><path d="M705,465.8906 L705,490.8906 L788,490.8906 L788,475.8906 L778,465.8906 L705,465.8906 " fill="#FEFFDD" style="stroke:#181818;stroke-width:0.5;"/><path d="M778,465.8906 L778,475.8906 L788,475.8906 L778,465.8906 " fill="#FEFFDD" style="stroke:#181818;stroke-width:0.5;"/><text fill="#000000" font-family="DejaVu Sans" font-size="13" lengthAdjust="spacing" textLength="62" x="711" y="482.9575">user login</text><polygon fill="#181818" points="358.5,513.1563,348.5,517.1563,358.5,521.1563,354.5,517.1563" style="stroke:#181818;stroke-width:1.0;"/><line style="stroke:#181818;stroke-width:1.0;" x1="352.5" x2="746" y1="517.1563" y2="517.1563"/><text fill="#000000" font-family="DejaVu Sans" font-size="13" lengthAdjust="spacing" textLength="106" x="364.5" y="512.0903">AuthN Response</text><polygon fill="#181818" points="541,567.2891,551,571.2891,541,575.2891,545,571.2891" style="stroke:#181818;stroke-width:1.0;"/><line style="stroke:#181818;stroke-width:1.0;stroke-dasharray:2.0,2.0;" x1="347.5" x2="547" y1="571.2891" y2="571.2891"/><text fill="#000000" font-family="DejaVu Sans" font-size="13" lengthAdjust="spacing" textLength="97" x="354.5" y="566.2231">AuthZ Request</text><path d="M507,584.2891 L507,609.2891 L608,609.2891 L608,594.2891 L598,584.2891 L507,584.2891 " fill="#FEFFDD" style="stroke:#181818;stroke-width:0.5;"/><path d="M598,584.2891 L598,594.2891 L608,594.2891 L598,584.2891 " fill="#FEFFDD" style="stroke:#181818;stroke-width:0.5;"/><text fill="#000000" font-family="DejaVu Sans" font-size="13" lengthAdjust="spacing" textLength="80" x="513" y="601.356">authZ check</text><polygon fill="#181818" points="358.5,631.5547,348.5,635.5547,358.5,639.5547,354.5,635.5547" style="stroke:#181818;stroke-width:1.0;"/><line style="stroke:#181818;stroke-width:1.0;stroke-dasharray:2.0,2.0;" x1="352.5" x2="557" y1="635.5547" y2="635.5547"/><text fill="#000000" font-family="DejaVu Sans" font-size="13" lengthAdjust="spacing" textLength="99" x="364.5" y="630.4888">AuthZ interrupt</text><polygon fill="#181818" points="546,687.6875,556,691.6875,546,695.6875,550,691.6875" style="stroke:#181818;stroke-width:1.0;"/><line style="stroke:#181818;stroke-width:1.0;" x1="342.5" x2="552" y1="691.6875" y2="691.6875"/><text fill="#000000" font-family="DejaVu Sans" font-size="13" lengthAdjust="spacing" textLength="49" x="349.5" y="686.6216">redirect</text><rect fill="#FFAAAA" height="23" style="stroke:#181818;stroke-width:0.5;" width="75" x="563" y="673.5547"/><text fill="#000000" font-family="DejaVu Sans" font-size="13" lengthAdjust="spacing" textLength="67" x="567" y="689.6216">error page</text><rect fill="#EEEEEE" height="3" style="stroke:#EEEEEE;stroke-width:1.0;" width="840" x="0" y="722.2539"/><line style="stroke:#000000;stroke-width:1.0;" x1="0" x2="840" y1="722.2539" y2="722.2539"/><line style="stroke:#000000;stroke-width:1.0;" x1="0" x2="840" y1="725.2539" y2="725.2539"/><rect fill="#EEEEEE" height="23.1328" style="stroke:#000000;stroke-width:2.0;" width="146" x="347" y="711.6875"/><text fill="#000000" font-family="DejaVu Sans" font-size="13" font-weight="bold" lengthAdjust="spacing" textLength="127" x="353" y="727.7544">Interrupted flow</text><polygon fill="#181818" points="325.5,761.9531,335.5,765.9531,325.5,769.9531,329.5,765.9531" style="stroke:#181818;stroke-width:1.0;"/><line style="stroke:#181818;stroke-width:1.0;" x1="108.5" x2="331.5" y1="765.9531" y2="765.9531"/><text fill="#000000" font-family="DejaVu Sans" font-size="13" lengthAdjust="spacing" textLength="96" x="115.5" y="760.8872">AuthN Request</text><polygon fill="#181818" points="730,791.0859,740,795.0859,730,799.0859,734,795.0859" style="stroke:#181818;stroke-width:1.0;"/><line style="stroke:#181818;stroke-width:1.0;" x1="347.5" x2="736" y1="795.0859" y2="795.0859"/><text fill="#000000" font-family="DejaVu Sans" font-size="13" lengthAdjust="spacing" textLength="96" x="354.5" y="790.02">AuthN Request</text><path d="M705,808.0859 L705,833.0859 L788,833.0859 L788,818.0859 L778,808.0859 L705,808.0859 " fill="#FEFFDD" style="stroke:#181818;stroke-width:0.5;"/><path d="M778,808.0859 L778,818.0859 L788,818.0859 L778,808.0859 " fill="#FEFFDD" style="stroke:#181818;stroke-width:0.5;"/><text fill="#000000" font-family="DejaVu Sans" font-size="13" lengthAdjust="spacing" textLength="62" x="711" y="825.1528">user login</text><polygon fill="#181818" points="358.5,855.3516,348.5,859.3516,358.5,863.3516,354.5,859.3516" style="stroke:#181818;stroke-width:1.0;"/><line style="stroke:#181818;stroke-width:1.0;" x1="352.5" x2="741" y1="859.3516" y2="859.3516"/><text fill="#000000" font-family="DejaVu Sans" font-size="13" lengthAdjust="spacing" textLength="106" x="364.5" y="854.2856">AuthN Response</text><polygon fill="#181818" points="541,909.4844,551,913.4844,541,917.4844,545,913.4844" style="stroke:#181818;stroke-width:1.0;"/><line style="stroke:#181818;stroke-width:1.0;stroke-dasharray:2.0,2.0;" x1="347.5" x2="547" y1="913.4844" y2="913.4844"/><text fill="#000000" font-family="DejaVu Sans" font-size="13" lengthAdjust="spacing" textLength="97" x="354.5" y="908.4185">AuthZ Request</text><path d="M507,926.4844 L507,951.4844 L608,951.4844 L608,936.4844 L598,926.4844 L507,926.4844 " fill="#FEFFDD" style="stroke:#181818;stroke-width:0.5;"/><path d="M598,926.4844 L598,936.4844 L608,936.4844 L598,926.4844 " fill="#FEFFDD" style="stroke:#181818;stroke-width:0.5;"/><text fill="#000000" font-family="DejaVu Sans" font-size="13" lengthAdjust="spacing" textLength="80" x="513" y="943.5513">authZ check</text><polygon fill="#181818" points="358.5,973.75,348.5,977.75,358.5,981.75,354.5,977.75" style="stroke:#181818;stroke-width:1.0;"/><line style="stroke:#181818;stroke-width:1.0;stroke-dasharray:2.0,2.0;" x1="352.5" x2="557" y1="977.75" y2="977.75"/><text fill="#000000" font-family="DejaVu Sans" font-size="13" lengthAdjust="spacing" textLength="145" x="364.5" y="972.6841">Interrupt + redirect_url</text><polygon fill="#181818" points="541,1027.8828,551,1031.8828,541,1035.8828,545,1031.8828" style="stroke:#181818;stroke-width:1.0;"/><line style="stroke:#181818;stroke-width:1.0;" x1="342.5" x2="547" y1="1031.8828" y2="1031.8828"/><text fill="#000000" font-family="DejaVu Sans" font-size="13" lengthAdjust="spacing" textLength="53" x="349.5" y="1026.8169">Redirect</text><path d="M457,1046.8828 L523,1046.8828 L523,1054.0156 L513,1064.0156 L457,1064.0156 L457,1046.8828 " fill="#EAC4ED" style="stroke:#000000;stroke-width:1.5;"/><rect fill="none" height="147.5313" style="stroke:#000000;stroke-width:1.5;" width="257" x="457" y="1046.8828"/><text fill="#000000" font-family="DejaVu Sans" font-size="13" font-weight="bold" lengthAdjust="spacing" textLength="21" x="472" y="1059.9497">alt</text><line style="stroke:#181818;stroke-width:1.0;" x1="563" x2="605" y1="1085.1484" y2="1085.1484"/><line style="stroke:#181818;stroke-width:1.0;" x1="605" x2="605" y1="1085.1484" y2="1098.1484"/><line style="stroke:#181818;stroke-width:1.0;" x1="564" x2="605" y1="1098.1484" y2="1098.1484"/><polygon fill="#181818" points="574,1094.1484,564,1098.1484,574,1102.1484,570,1098.1484" style="stroke:#181818;stroke-width:1.0;"/><text fill="#000000" font-family="DejaVu Sans" font-size="13" lengthAdjust="spacing" textLength="132" x="570" y="1080.0825">accept platform AUP</text><line style="stroke:#000000;stroke-width:1.0;stroke-dasharray:2.0,2.0;" x1="457" x2="714" y1="1107.1484" y2="1107.1484"/><line style="stroke:#181818;stroke-width:1.0;" x1="563" x2="605" y1="1129.2813" y2="1129.2813"/><line style="stroke:#181818;stroke-width:1.0;" x1="605" x2="605" y1="1129.2813" y2="1142.2813"/><line style="stroke:#181818;stroke-width:1.0;" x1="564" x2="605" y1="1142.2813" y2="1142.2813"/><polygon fill="#181818" points="574,1138.2813,564,1142.2813,574,1146.2813,570,1142.2813" style="stroke:#181818;stroke-width:1.0;"/><text fill="#000000" font-family="DejaVu Sans" font-size="13" lengthAdjust="spacing" textLength="123" x="570" y="1124.2153">accept service AUP</text><line style="stroke:#000000;stroke-width:1.0;stroke-dasharray:2.0,2.0;" x1="457" x2="714" y1="1151.2813" y2="1151.2813"/><line style="stroke:#181818;stroke-width:1.0;" x1="563" x2="605" y1="1173.4141" y2="1173.4141"/><line style="stroke:#181818;stroke-width:1.0;" x1="605" x2="605" y1="1173.4141" y2="1186.4141"/><line style="stroke:#181818;stroke-width:1.0;" x1="564" x2="605" y1="1186.4141" y2="1186.4141"/><polygon fill="#181818" points="574,1182.4141,564,1186.4141,574,1190.4141,570,1186.4141" style="stroke:#181818;stroke-width:1.0;"/><text fill="#000000" font-family="DejaVu Sans" font-size="13" lengthAdjust="spacing" textLength="72" x="570" y="1168.3481">enter TOTP</text><polygon fill="#181818" points="358.5,1218.5469,348.5,1222.5469,358.5,1226.5469,354.5,1222.5469" style="stroke:#181818;stroke-width:1.0;"/><line style="stroke:#181818;stroke-width:1.0;" x1="352.5" x2="557" y1="1222.5469" y2="1222.5469"/><text fill="#000000" font-family="DejaVu Sans" font-size="13" lengthAdjust="spacing" textLength="55" x="364.5" y="1217.481">continue</text><polygon fill="#181818" points="730,1272.6797,740,1276.6797,730,1280.6797,734,1276.6797" style="stroke:#181818;stroke-width:1.0;"/><line style="stroke:#181818;stroke-width:1.0;" x1="347.5" x2="736" y1="1276.6797" y2="1276.6797"/><text fill="#000000" font-family="DejaVu Sans" font-size="13" lengthAdjust="spacing" textLength="96" x="354.5" y="1271.6138">AuthN Request</text><path d="M723,1289.6797 L723,1314.6797 L770,1314.6797 L770,1299.6797 L760,1289.6797 L723,1289.6797 " fill="#FEFFDD" style="stroke:#181818;stroke-width:0.5;"/><path d="M760,1289.6797 L760,1299.6797 L770,1299.6797 L760,1289.6797 " fill="#FEFFDD" style="stroke:#181818;stroke-width:0.5;"/><text fill="#000000" font-family="DejaVu Sans" font-size="13" lengthAdjust="spacing" textLength="26" x="729" y="1306.7466">SSO</text><polygon fill="#181818" points="358.5,1336.9453,348.5,1340.9453,358.5,1344.9453,354.5,1340.9453" style="stroke:#181818;stroke-width:1.0;"/><line style="stroke:#181818;stroke-width:1.0;" x1="352.5" x2="746" y1="1340.9453" y2="1340.9453"/><text fill="#000000" font-family="DejaVu Sans" font-size="13" lengthAdjust="spacing" textLength="106" x="364.5" y="1335.8794">AuthN Response</text><polygon fill="#181818" points="541,1391.0781,551,1395.0781,541,1399.0781,545,1395.0781" style="stroke:#181818;stroke-width:1.0;"/><line style="stroke:#181818;stroke-width:1.0;stroke-dasharray:2.0,2.0;" x1="347.5" x2="547" y1="1395.0781" y2="1395.0781"/><text fill="#000000" font-family="DejaVu Sans" font-size="13" lengthAdjust="spacing" textLength="97" x="354.5" y="1390.0122">AuthZ Request</text><path d="M507,1408.0781 L507,1433.0781 L608,1433.0781 L608,1418.0781 L598,1408.0781 L507,1408.0781 " fill="#FEFFDD" style="stroke:#181818;stroke-width:0.5;"/><path d="M598,1408.0781 L598,1418.0781 L608,1418.0781 L598,1408.0781 " fill="#FEFFDD" style="stroke:#181818;stroke-width:0.5;"/><text fill="#000000" font-family="DejaVu Sans" font-size="13" lengthAdjust="spacing" textLength="80" x="513" y="1425.145">authZ check</text><polygon fill="#181818" points="358.5,1455.3438,348.5,1459.3438,358.5,1463.3438,354.5,1459.3438" style="stroke:#181818;stroke-width:1.0;"/><line style="stroke:#181818;stroke-width:1.0;stroke-dasharray:2.0,2.0;" x1="352.5" x2="557" y1="1459.3438" y2="1459.3438"/><text fill="#000000" font-family="DejaVu Sans" font-size="13" lengthAdjust="spacing" textLength="161" x="364.5" y="1454.2778">AuthZ OK + Entitlements</text><polygon fill="#181818" points="119.5,1484.4766,109.5,1488.4766,119.5,1492.4766,115.5,1488.4766" style="stroke:#181818;stroke-width:1.0;"/><line style="stroke:#181818;stroke-width:1.0;" x1="113.5" x2="341.5" y1="1488.4766" y2="1488.4766"/><text fill="#000000" font-family="DejaVu Sans" font-size="13" lengthAdjust="spacing" textLength="205" x="125.5" y="1483.4106">AuthN Response + Entitlements</text><!--SRC=[lLHDJzmm43rdViNiXmIeLA8IfHHfAoq2LDJ2hbZQGoyh4qyMbwpjsWw5YX_VSHAooGA7gbLpIJBp_EQzyTZ-Hcahd5YYf4mKUJWnEfoB9U4HVHTV2vm9xS4tgAbmGQNA2XscGagb5_Xk1y2kmZWZTwjIGk7HMzYuCdVOdrsCp_eu-AmMr-4mBwYpu5WMbyVZirbSOPsvk-_I7PO9V-LXWxH4vklaJ-KqvfMq03rUdf8i7E6G0_FSB9JU70Qw2ziuD9Rqt9FtocWSuHiEfRdnr8vjGL9AmDSV8kK1ZejmVOuNzACW7o3H9X2QMt9LjgI6fAUoBZqaYKY3kXMCZigI7ajN6IJy4wdB6YjoRutsLFDqD36Hf6UfugknsxKkcFRNFBscz6Ppw2WKJgzySNNkPLNxsyfOKoCskcMpn8eIMn92mf6IfVPG5u2spiYnfWz68_mehBt7B3S_SJG2yC-refBJC5NpqDhCVk5PLVdTtm9uU7W0w1ZkLyOcd_0L7kkWGavBqi57TBErtgutVmqDBJULXcXWIcwfgbav8gr8_YSpIWTohh2XGQsSnFrn99MZD3nLxSgTTF7SuI3B13y7o5p6eHKBAbsTFhB_Kp_RyO3jFE-ggSXTVzG-Brp-WhsB5-rr9axaOS20NRQ1WvEze_7kBY0_vS3ML29DYSlQN8JCk2MElqo1Sjx-GVQUzlVVrkFTHVlwHck1PRQNqXDsYhxmSdB9E2sXJjLDJFbcLPhllhM3iZvdLRzQJPtD9jpDdUruE_tPmAzL-flv_mq0]--></g></svg>